<svg class="diagram-root" style="background: #f5f6f6" xmlns="http://www.w3.org/2000/svg" xmlns:xlink="http://www.w3.org/1999/xlink"><style>.diagram-root { font-family: "Helvetica Neue", sans-serif; font-size: 12px; } .t { overflow: visible; } .t-bg { y: 40; fill: #fff;   } .th { fill: #005aa0;   } .tht { fill: #fff; font-size: 14px;  } .tf { fill: #323c46; overflow: visible; } .tf.pk { fill: #005aa0; font-weight: bold; } .tf.fk { font-weight: bold; } .ty { fill: #adb1b5; font-weight: normal; text-anchor: end; } .r { fill: transparent; stroke: #c3c3c3; stroke-width: 1; } .l { stroke: 1; } .i { fill: #c2c7ce; stroke: #c2c7ce; } .i.ix { fill: #afb3b6; stroke: #000; } .fa { fill: transparent; overflow: visible; } .fa .bg.hover { fill: #f7f7f7; } .c { cy: 12; r: 4; stroke: #d2d2dc; fill: #d2d2dc; } .hr { fill: transparent; stroke: #323c46; stroke-opacity: 0.035; stroke-width: 13; } .dc { stroke: #fa5a3c; fill: #fa5a3c; } .x { stroke: white; stroke-width: 1; } .hl .th { fill: #1b9bff; } .hl .tht {  } .fhl .bg { fill: #e7f4ff; } .fhls .bg {  } .r.hl { stroke: #1b9bff; } .dim { opacity: 0.25; }</style><g class="drawing-wrapper" transform="translate(65, -78.46000000000004) scale(1,1)"><g class="rs"><path d="M 178.47 283 m -1, 0 a 1,1 0 1,0 2,0 a 1,1 0 1,0 -2,0 M 178.47 283 m -0.5, 0 a 0.5,0.5 0 1,0 1,0 a 0.5,0.5 0 1,0 -1,0  M178.47 283 L178.47 283 190.47 283 M184.47 289 L184.47 289 184.47 277 M190.47 283 Q 212.11 283, 233.74 225 T 277 167 M 289 167 m -1, 0 a 1,1 0 1,0 2,0 a 1,1 0 1,0 -2,0 M 289 167 m -0.5, 0 a 0.5,0.5 0 1,0 1,0 a 0.5,0.5 0 1,0 -1,0  M289 167 L289 167 277 167 M283 173 L283 173 283 161" id="h445105819" class="r"></path><path d="M -42.849999999999994 308 m -1, 0 a 1,1 0 1,0 2,0 a 1,1 0 1,0 -2,0 M -42.849999999999994 308 m -0.5, 0 a 0.5,0.5 0 1,0 1,0 a 0.5,0.5 0 1,0 -1,0  M-42.849999999999994 308 L-42.849999999999994 308 -54.849999999999994 308 M-48.849999999999994 314 L-48.849999999999994 314 -48.849999999999994 302 M-54.849999999999994 308 C -84.09004310341625 308, -84.00004310341625 395, -55 395 M -43 395 m -1, 0 a 1,1 0 1,0 2,0 a 1,1 0 1,0 -2,0 M -43 395 m -0.5, 0 a 0.5,0.5 0 1,0 1,0 a 0.5,0.5 0 1,0 -1,0  M-43 395 L-43 395 -55 395 M-49 401 L-49 401 -49 389" id="h3597170967" class="r"></path><path d="M -42 166 m -1, 0 a 1,1 0 1,0 2,0 a 1,1 0 1,0 -2,0 M -42 166 m -0.5, 0 a 0.5,0.5 0 1,0 1,0 a 0.5,0.5 0 1,0 -1,0  M-42 166 L-42 166 -54 166 M-48 172 L-48 172 -48 160 M-54 166 C -105.6 166, -105 395, -55 395 M -43 395 m -1, 0 a 1,1 0 1,0 2,0 a 1,1 0 1,0 -2,0 M -43 395 m -0.5, 0 a 0.5,0.5 0 1,0 1,0 a 0.5,0.5 0 1,0 -1,0  M-43 395 L-43 395 -55 395 M-49 401 L-49 401 -49 389" id="h3143083809" class="r"></path><path d="M 197.8 191 m -1, 0 a 1,1 0 1,0 2,0 a 1,1 0 1,0 -2,0 M 197.8 191 m -0.5, 0 a 0.5,0.5 0 1,0 1,0 a 0.5,0.5 0 1,0 -1,0  M197.8 191 L197.8 191 209.8 191 M203.8 197 L203.8 197 203.8 185 M209.8 191 Q 226.6 191, 243.4 179 T 277 167 M 289 167 m -1, 0 a 1,1 0 1,0 2,0 a 1,1 0 1,0 -2,0 M 289 167 m -0.5, 0 a 0.5,0.5 0 1,0 1,0 a 0.5,0.5 0 1,0 -1,0  M289 167 L289 167 277 167 M283 173 L283 173 283 161" id="h2460846066" class="r"></path><path d="M 514.13 192 m -1, 0 a 1,1 0 1,0 2,0 a 1,1 0 1,0 -2,0 M 514.13 192 m -0.5, 0 a 0.5,0.5 0 1,0 1,0 a 0.5,0.5 0 1,0 -1,0  M514.13 192 L514.13 192 526.13 192 M520.13 198 L520.13 198 520.13 186 M526.13 192 Q 541.52 192, 556.91 178.73 T 587.69 165.46000000000004 M 599.69 165.46000000000004 m -1, 0 a 1,1 0 1,0 2,0 a 1,1 0 1,0 -2,0 M 599.69 165.46000000000004 m -0.5, 0 a 0.5,0.5 0 1,0 1,0 a 0.5,0.5 0 1,0 -1,0  M599.69 165.46000000000004 L599.69 165.46000000000004 587.69 165.46000000000004 M593.69 171.46000000000004 L593.69 171.46000000000004 593.69 159.46000000000004" id="h3496878531" class="r"></path><path d="M 289 403.77 m -1, 0 a 1,1 0 1,0 2,0 a 1,1 0 1,0 -2,0 M 289 403.77 m -0.5, 0 a 0.5,0.5 0 1,0 1,0 a 0.5,0.5 0 1,0 -1,0  M289 403.77 L289 403.77 277 403.77 M283 409.77 L283 409.77 283 397.77 M277 403.77 C 227 403.77, 227 167, 277 167 M 289 167 m -1, 0 a 1,1 0 1,0 2,0 a 1,1 0 1,0 -2,0 M 289 167 m -0.5, 0 a 0.5,0.5 0 1,0 1,0 a 0.5,0.5 0 1,0 -1,0  M289 167 L289 167 277 167 M283 173 L283 173 283 161" id="h2914065361" class="r"></path></g><g class="hrs"></g><g class="ts"><svg width="221.32" height="100" x="-42.849999999999994" y="226" id="h2930137307" class="t"><rect height="40" width="221.32" class="th"></rect><text x="13" y="25" class="tht">department_employee_junction</text><rect height="60" width="221.32" class="t-bg" y="40"></rect><text x="13" y="61" class="tf fk">employee_number<tspan x="208.32" class="ty">INT</tspan></text><text x="13" y="86" class="tf fk">dept_number<tspan x="208.32" class="ty">VARCHAR(255)</tspan></text></svg><svg width="191.8" height="100" x="-43" y="338" id="h475896179" class="t"><rect height="40" width="191.8" class="th"></rect><text x="13" y="25" class="tht">departments</text><rect height="60" width="191.8" class="t-bg" y="40"></rect><text x="13" y="61" class="tf fk">dept_number<tspan x="178.8" class="ty">INT</tspan></text><text x="13" y="86" class="tf">dept_name<tspan x="178.8" class="ty">VARCHAR(255)</tspan></text></svg><svg width="239.8" height="100" x="-42" y="109" id="h3758851519" class="t"><rect height="40" width="239.8" class="th"></rect><text x="13" y="25" class="tht">department_managers</text><rect height="60" width="239.8" class="t-bg" y="40"></rect><text x="13" y="61" class="tf fk">department_number<tspan x="226.8" class="ty">VARCHAR(255)</tspan></text><text x="13" y="86" class="tf fk">employee_number<tspan x="226.8" class="ty">INT</tspan></text></svg><svg width="225.13" height="225" x="289" y="110" id="h1639608377" class="t"><rect height="40" width="225.13" class="th"></rect><text x="13" y="25" class="tht">employees</text><rect height="185" width="225.13" class="t-bg" y="40"></rect><text x="13" y="61" class="tf pk">employee_number<tspan x="212.13" class="ty">INT</tspan></text><path d="M7,14A2,2 0 0,1 5,12A2,2 0 0,1 7,10A2,2 0 0,1 9,12A2,2 0 0,1 7,14M12.65,10C11.83,7.67 9.61,6 7, 6A6, 6 0 0, 0 1, 12A6, 6 0 0, 0 7, 18C9.61, 18 11.83, 16.33 12.65, 14H17V18H21V14H23V10H12.65Z" class="i pk" transform="translate(172.79666603088378, 48) scale(0.65)"></path><text x="13" y="86" class="tf fk">employee_title_id<tspan x="212.13" class="ty">VARCHAR(255)</tspan></text><text x="13" y="111" class="tf">birth_date<tspan x="212.13" class="ty">VARCHAR(255)</tspan></text><text x="13" y="136" class="tf">first_name<tspan x="212.13" class="ty">VARCHAR(255)</tspan></text><text x="13" y="161" class="tf">last_name<tspan x="212.13" class="ty">VARCHAR(255)</tspan></text><text x="13" y="186" class="tf">sex<tspan x="212.13" class="ty">VARCHAR(255)</tspan></text><text x="13" y="211" class="tf">hire_date<tspan x="212.13" class="ty">VARCHAR(255)</tspan></text></svg><svg width="166.47" height="100" x="599.69" y="108.46000000000004" id="h311790747" class="t"><rect height="40" width="166.47" class="th"></rect><text x="13" y="25" class="tht">titles</text><rect height="60" width="166.47" class="t-bg" y="40"></rect><text x="13" y="61" class="tf fk">title_id<tspan x="153.47" class="ty">VARCHAR(255)</tspan></text><text x="13" y="86" class="tf">title<tspan x="153.47" class="ty">VARCHAR(255)</tspan></text></svg><svg width="164.67" height="100" x="289" y="346.77" id="h2472833127" class="t"><rect height="40" width="164.67" class="th"></rect><text x="13" y="25" class="tht">salaries</text><rect height="60" width="164.67" class="t-bg" y="40"></rect><text x="13" y="61" class="tf fk">employee_number<tspan x="151.67" class="ty">INT</tspan></text><text x="13" y="86" class="tf">salary<tspan x="151.67" class="ty">INT</tspan></text></svg></g></g><text class="qdbd-link" x="10" y="20">www.quickdatabasediagrams.com</text></svg>